<svg width="34" height="34" viewBox="0 0 34 34" fill="none" xmlns="http://www.w3.org/2000/svg">
<path d="M22.6336 22.0362L21.7871 23.306C21.6181 23.5594 21.3947 23.7757 21.1002 23.8535C20.1355 24.1084 17.5746 24.2235 13.6756 20.3245C9.77655 16.4255 9.89163 13.8645 10.1465 12.8998C10.2243 12.6053 10.4406 12.3819 10.694 12.2129L11.9638 11.3664C12.9092 10.7362 13.1646 9.45889 12.5344 8.51352L10.1362 4.91631C9.58613 4.09115 8.52564 3.7759 7.61411 4.16656L6.5323 4.63019C5.71049 4.98239 5.04012 5.61449 4.64027 6.41419C4.3062 7.08232 4.04728 7.7859 4.0122 8.53207C3.90164 10.8835 4.41726 16.6768 10.8702 23.1298C17.3232 29.5828 23.1165 30.0984 25.4679 29.9878C26.2141 29.9527 26.9177 29.6938 27.5858 29.3597C28.3855 28.9599 29.0176 28.2895 29.3698 27.4677L29.8334 26.3859C30.2241 25.4744 29.9088 24.4139 29.0837 23.8638L25.4865 21.4656C24.5411 20.8354 23.2638 21.0908 22.6336 22.0362Z" fill="white"/>
</svg>
