<svg width="14" height="14" viewBox="0 0 14 14" fill="none" xmlns="http://www.w3.org/2000/svg">
<path fill-rule="evenodd" clip-rule="evenodd" d="M13.4001 6.99122C13.4001 7.42404 13.356 7.85626 13.2695 8.27757C13.1851 8.68888 13.0601 9.09268 12.8963 9.4787C12.7363 9.85789 12.5379 10.2233 12.306 10.5641C12.0776 10.9027 11.8144 11.2204 11.5253 11.5099C11.2356 11.7983 10.9169 12.0607 10.5784 12.2901C10.2365 12.5204 9.87059 12.7186 9.49118 12.8793C9.10461 13.0422 8.69987 13.167 8.28892 13.2513C7.86705 13.338 7.43325 13.3823 6.99981 13.3823C6.56604 13.3823 6.13227 13.338 5.711 13.2513C5.29942 13.167 4.89471 13.0422 4.50844 12.8793C4.12905 12.7186 3.76277 12.5204 3.42088 12.2901C3.08243 12.0607 2.76366 11.7983 2.47458 11.5099C2.1852 11.2204 1.92205 10.9027 1.69329 10.5641C1.46265 10.2233 1.26388 9.85787 1.10326 9.4787C0.939478 9.09268 0.814177 8.68886 0.729482 8.27757C0.64386 7.85626 0.600098 7.42404 0.600098 6.99122C0.600098 6.55808 0.643835 6.12494 0.729507 5.70455C0.814202 5.29324 0.939503 4.88881 1.10328 4.50342C1.2639 4.12396 1.46268 3.75823 1.69332 3.41744C1.92207 3.07854 2.18523 2.76147 2.47461 2.47155C2.76369 2.18319 3.08245 1.92139 3.42091 1.69234C3.76279 1.46108 4.12908 1.26295 4.50846 1.10191C4.89474 0.938663 5.29942 0.813543 5.71102 0.729921C6.13229 0.643797 6.56606 0.600098 6.99984 0.600098C7.43328 0.600098 7.86705 0.643797 8.28895 0.729921C8.6999 0.813568 9.10461 0.938688 9.49121 1.10191C9.87059 1.26292 10.2366 1.46108 10.5784 1.69234C10.9169 1.92139 11.2357 2.18319 11.5254 2.47155C11.8144 2.76147 12.0776 3.07854 12.306 3.41744C12.5379 3.75823 12.7363 4.12398 12.8963 4.50342C13.0601 4.88881 13.1851 5.29324 13.2695 5.70455C13.356 6.12494 13.4001 6.55808 13.4001 6.99122ZM4.66779 2.05463C3.14363 2.77334 2.00607 4.17575 1.65136 5.86591C1.79545 5.86716 4.07307 5.89587 6.69726 5.19963C5.75128 3.52133 4.74061 2.15171 4.66779 2.05463ZM7.15009 6.04006C4.33589 6.88136 1.63543 6.82082 1.53856 6.81709C1.53698 6.87575 1.53417 6.93254 1.53417 6.99122C1.53417 8.39331 2.06389 9.67153 2.93456 10.638C2.93268 10.6352 4.4284 7.98545 7.37792 7.03304C7.44916 7.00933 7.52168 6.98809 7.59355 6.9675C7.45638 6.65733 7.30665 6.3465 7.15009 6.04006ZM10.6094 2.89504C9.6471 2.04776 8.38362 1.53382 6.99979 1.53382C6.5557 1.53382 6.12474 1.5875 5.71191 1.68673C5.79377 1.79659 6.82041 3.15656 7.75513 4.8704C9.81744 4.09836 10.5959 2.915 10.6094 2.89504ZM7.96612 7.87187C7.95394 7.8759 7.94177 7.87937 7.92987 7.88373C4.70507 9.00632 3.65196 11.2687 3.64057 11.2934C4.56845 12.0139 5.73226 12.4486 6.99983 12.4486C7.75672 12.4486 8.47769 12.2947 9.13366 12.0161C9.05272 11.5393 8.73521 9.86784 7.96612 7.87187ZM10.054 11.5174C11.2812 10.6905 12.1528 9.37729 12.396 7.85624C12.2835 7.82004 10.7543 7.33664 8.99018 7.61908C9.70709 9.58636 9.99838 11.1885 10.054 11.5174ZM8.17582 5.68366C8.30268 5.94393 8.42552 6.20883 8.53895 6.47505C8.57928 6.57056 8.61866 6.66418 8.65709 6.75779C10.5347 6.52185 12.3845 6.9188 12.4635 6.93501C12.451 5.64121 11.9876 4.45379 11.2207 3.52416C11.2104 3.5388 10.3338 4.80361 8.17582 5.68366Z" fill="white"/>
</svg>
