<svg width="21" height="21" viewBox="0 0 21 21" fill="none" xmlns="http://www.w3.org/2000/svg">
<path fill-rule="evenodd" clip-rule="evenodd" d="M4.00846 8.6948C4.00846 8.07615 4.01591 7.45751 4.02339 6.836L4.02339 6.83599C4.02719 6.52089 4.03099 6.20506 4.03384 5.88813C4.03384 2.48283 6.16556 0 9.10936 0H12.8906C15.8344 0 17.9662 2.48283 17.9662 5.88813C17.9915 7.25221 18 8.61629 18 9.99019C18 11.3641 17.9915 12.7478 17.9662 14.1119C17.9662 17.5172 15.8344 20 12.8906 20H9.10936C6.16556 20 4.03384 17.5172 4.03384 14.1021C4.01692 12.8165 4 11.5015 4 10.1668L4.00846 8.6948ZM12.2797 17.64V17.8C12.2797 18.4736 11.7165 19 10.9997 19C10.3 19 9.71973 18.4736 9.71973 17.8V17.64C9.71973 16.984 10.3 16.44 10.9997 16.44C11.7165 16.44 12.2797 16.984 12.2797 17.64ZM6.01671 6.4434C6.01136 6.84738 6.00604 7.2495 6.00604 7.65162L6 8.60844C6 9.47596 6.01208 10.3307 6.02417 11.1663C6.02417 13.3862 7.54683 15 9.64955 15H12.3505C14.4532 15 15.9758 13.3862 15.9758 11.1727C15.994 10.2861 16 9.38665 16 8.49362C16 7.60059 15.994 6.71393 15.9758 5.82728C15.9758 3.61384 14.4532 2 12.3505 2H9.64955C7.54683 2 6.02417 3.61384 6.02417 5.82728C6.02214 6.0333 6.01942 6.23859 6.01671 6.4434Z" fill="#009640"/>
</svg>
