<svg width="36" height="36" viewBox="0 0 36 36" fill="none" xmlns="http://www.w3.org/2000/svg">
<path d="M14.5658 29.3643C18.1518 29.3643 21.4306 28.0458 23.9629 25.8791L33.7262 35.6418C33.9479 35.8623 34.2359 35.9726 34.525 35.9726C34.8136 35.9726 35.1016 35.8623 35.3215 35.6418C35.5431 35.4207 35.6528 35.1333 35.6528 34.8442C35.6528 34.5551 35.5431 34.2671 35.3215 34.0466L25.5576 24.2833C27.7255 21.752 29.044 18.4721 29.044 14.8856C29.044 6.90088 22.5494 0.40625 14.5658 0.40625C6.58169 0.40625 0.0859375 6.90088 0.0859375 14.8856C0.085375 22.8691 6.58113 29.3643 14.5658 29.3643ZM14.5658 2.66188C21.304 2.66188 26.7884 8.14513 26.7884 14.885C26.7884 21.6243 21.304 27.1076 14.5658 27.1076C7.82538 27.1076 2.34213 21.6249 2.34213 14.885C2.34156 8.14513 7.82481 2.66188 14.5658 2.66188Z" fill="#21242C"/>
<path d="M10.2085 16.0137H13.044V18.8492C13.044 19.4719 13.5491 19.977 14.1724 19.977C14.7962 19.977 15.3008 19.4725 15.3008 18.8492V16.0137H18.1375C18.7607 16.0137 19.2647 15.5085 19.2647 14.8853C19.2647 14.262 18.7607 13.7569 18.1375 13.7569H15.3008V10.9208C15.3008 10.2975 14.7968 9.79297 14.1724 9.79297C13.5497 9.79297 13.044 10.297 13.044 10.9208V13.7569H10.2085C9.58577 13.7569 9.08008 14.262 9.08008 14.8853C9.08008 15.5085 9.58577 16.0137 10.2085 16.0137Z" fill="#21242C"/>
</svg>
