<svg width="20" height="18" viewBox="0 0 20 18" fill="none" xmlns="http://www.w3.org/2000/svg">
<path fill-rule="evenodd" clip-rule="evenodd" d="M14.939 0C16.28 0 17.57 0.53 18.519 1.481C19.469 2.43 20 3.71 20 5.05V12.95C20 15.74 17.73 18 14.939 18H5.06C2.269 18 0 15.74 0 12.95V5.05C0 2.26 2.259 0 5.06 0H14.939ZM16.53 6.54033L16.61 6.46033C16.849 6.17033 16.849 5.75033 16.599 5.46033C16.46 5.31133 16.269 5.22033 16.07 5.20033C15.86 5.18933 15.66 5.26033 15.509 5.40033L11 9.00033C10.42 9.48133 9.58899 9.48133 8.99999 9.00033L4.49999 5.40033C4.18899 5.17033 3.75899 5.20033 3.49999 5.47033C3.22999 5.74033 3.19999 6.17033 3.42899 6.47033L3.55999 6.60033L8.10999 10.1503C8.66999 10.5903 9.34899 10.8303 10.06 10.8303C10.769 10.8303 11.46 10.5903 12.019 10.1503L16.53 6.54033Z" fill="#009640"/>
</svg>
