<svg width="24" height="24" viewBox="0 0 24 24" fill="none" xmlns="http://www.w3.org/2000/svg">
<g clip-path="url(#clip0_152_266)">
<path d="M0.915039 0V13.6705H13.1577V0H0.915039ZM6.4161 11.691L5.18343 10.8802L6.90534 8.26238H4.38393L7.66846 3.56672L8.87704 4.41192L7.21612 6.78727H9.64063L6.4161 11.691Z" fill="white"/>
<path d="M23.0848 9.54004H16.4307V13.1289H23.0848V9.54004Z" fill="white"/>
<path d="M0.915039 15.1455V19.8141H6.18501V19.8146H7.66007V19.8141H13.1577V15.1455H0.915039ZM7.7737 18.138H6.10195V16.6629H7.7737V18.138Z" fill="white"/>
<path d="M19.0198 14.6045V21.1145C19.0198 21.8923 18.3869 22.5251 17.6096 22.5251H9.5714C8.75568 22.5251 8.05748 22.0114 7.78359 21.29H6.25293C6.56718 22.8345 7.93602 24.0003 9.5714 24.0003H17.6096C19.2007 24.0003 20.4948 22.7056 20.4948 21.1145V14.6045H19.0198Z" fill="white"/>
<path d="M17.1475 5.11401V8.06517H22.3677V5.11401H17.1475ZM19.6025 7.0139H18.8787V6.38944H19.6025V7.0139ZM20.6365 7.0139H19.9128V6.38944H20.6365V7.0139Z" fill="white"/>
</g>
<defs>
<clipPath id="clip0_152_266">
<rect width="24" height="24" fill="white"/>
</clipPath>
</defs>
</svg>
