<svg width="24" height="24" viewBox="0 0 24 24" fill="none" xmlns="http://www.w3.org/2000/svg">
<path d="M17.7936 2.30203H16.3876V1.27314C16.3876 0.57113 15.8165 0 15.1145 0H8.88565C8.18364 0 7.61251 0.57113 7.61251 1.27314V2.30203H6.20658C5.15357 2.30203 4.29688 3.15872 4.29688 4.21173V22.0903C4.29688 23.1433 5.15357 24 6.20658 24H17.7936C18.8466 24 19.7033 23.1433 19.7033 22.0903V4.21173C19.7033 3.15872 18.8466 2.30203 17.7936 2.30203ZM6.20658 22.0903V4.21173H17.7936L17.7938 22.0903H6.20658Z" fill="#22252D"/>
<path d="M16.1969 16.9648H7.80371V20.7628H16.1969V16.9648Z" fill="#009640"/>
<path d="M16.1969 11.2441H7.80371V15.0421H16.1969V11.2441Z" fill="#009640"/>
<path d="M16.1969 5.52246H7.80371V9.32042H16.1969V5.52246Z" fill="#009640"/>
</svg>
