<svg width="194" height="87" viewBox="0 0 194 87" fill="none" xmlns="http://www.w3.org/2000/svg">
<path d="M51.5875 45.8576C51.5545 45.8576 51.5545 45.8576 51.5545 45.8247C51.5545 45.8247 51.5545 45.7917 51.5875 45.7917C51.9515 45.6597 52.0838 45.2639 51.9515 44.934L50.8265 42.295C50.6942 41.9652 50.2971 41.8002 49.9332 41.9322H49.9001V41.8992C50.1648 41.6353 50.1648 41.2065 49.9001 40.9756L47.8486 38.9634C47.5839 38.6995 47.1538 38.6995 46.8891 38.9634H46.856C46.856 38.9634 46.8229 38.9304 46.856 38.9304C46.9884 38.6005 46.8229 38.2047 46.4921 38.0727L43.812 36.9841C43.4811 36.8522 43.084 37.0171 42.9186 37.347L42.8855 37.38C42.8524 37.38 42.8524 37.347 42.8524 37.347C42.8524 36.9841 42.5546 36.6873 42.1576 36.6873H39.2459C38.8819 36.6873 38.551 36.9841 38.551 37.347C38.551 37.38 38.551 37.38 38.518 37.38C38.518 37.38 38.4849 37.38 38.4849 37.347C38.3525 37.0171 37.9555 36.8522 37.5915 36.9841L34.9114 38.0727C34.5805 38.2047 34.4151 38.6005 34.5474 38.9304V38.9634H34.5144C34.2497 38.6995 33.8195 38.6995 33.5548 38.9634L31.5034 40.9756C31.2387 41.2395 31.2387 41.6683 31.5034 41.8992V41.9322C31.5034 41.9322 31.4703 41.9652 31.4703 41.9322C31.1063 41.8002 30.7093 41.9652 30.5769 42.295L29.452 44.934C29.3196 45.2639 29.4851 45.6597 29.8159 45.7917L29.849 45.8247L29.8159 45.8576C29.452 45.8576 29.1211 46.1545 29.1211 46.5174V49.3543C29.1211 49.7171 29.4189 50.014 29.8159 50.014C29.849 50.014 29.849 50.014 29.849 50.047C29.849 50.047 29.849 50.08 29.8159 50.08C29.452 50.2119 29.3196 50.6078 29.452 50.9376L30.5769 53.5766C30.7093 53.9065 31.1063 54.0714 31.4703 53.9394H31.5034V53.9724C31.2387 54.2363 31.2387 54.6652 31.5034 54.8961L33.5548 56.9083C33.8195 57.1722 34.2497 57.1722 34.5144 56.9083H34.5474C34.5474 56.9083 34.5805 56.9413 34.5474 56.9413C34.4151 57.2711 34.5805 57.667 34.9114 57.7989L37.5915 58.8875C37.9224 59.0194 38.3194 58.8545 38.4849 58.5246L38.518 58.4916C38.551 58.4916 38.551 58.5246 38.551 58.5246C38.551 58.8875 38.8488 59.1844 39.2459 59.1844H42.1576C42.5215 59.1844 42.8524 58.8875 42.8524 58.5246C42.8524 58.4916 42.8524 58.4916 42.8855 58.4916C42.8855 58.4916 42.9186 58.4916 42.9186 58.5246C43.051 58.8545 43.448 59.0194 43.812 58.8875L46.4921 57.7989C46.8229 57.667 46.9884 57.2711 46.856 56.9413V56.9083H46.8891C47.1538 57.1722 47.5839 57.1722 47.8486 56.9083L49.9001 54.8961C50.1648 54.6322 50.1648 54.2033 49.9001 53.9724V53.9394C49.9001 53.9394 49.9332 53.9065 49.9332 53.9394C50.2971 54.0714 50.6942 53.9065 50.8265 53.5766L51.9515 50.9376C52.0838 50.6078 51.9184 50.2119 51.5875 50.08L51.5545 50.047L51.5875 50.014C51.9515 50.014 52.2824 49.7171 52.2824 49.3543V46.5174C52.2493 46.1545 51.9515 45.8576 51.5875 45.8576ZM40.6686 54.995C36.6981 54.995 33.4225 51.8283 33.4225 47.9358C33.8195 38.5675 47.4847 38.5675 47.8817 47.9358C47.8817 51.8283 44.6392 54.995 40.6686 54.995Z" fill="#009640"/>
<path d="M146.483 45.8576C146.45 45.8576 146.45 45.8576 146.45 45.8247C146.45 45.8247 146.45 45.7917 146.483 45.7917C146.847 45.6597 146.979 45.2639 146.847 44.934L145.722 42.295C145.59 41.9652 145.193 41.8002 144.829 41.9322H144.796V41.8992C145.06 41.6353 145.06 41.2065 144.796 40.9756L142.744 38.9634C142.479 38.6995 142.049 38.6995 141.785 38.9634H141.752C141.752 38.9634 141.718 38.9304 141.752 38.9304C141.884 38.6005 141.718 38.2047 141.388 38.0727L138.707 36.9841C138.377 36.8522 137.98 37.0171 137.814 37.347L137.781 37.38C137.748 37.38 137.748 37.347 137.748 37.347C137.748 36.9841 137.45 36.6873 137.053 36.6873H134.141C133.777 36.6873 133.447 36.9841 133.447 37.347C133.447 37.38 133.447 37.38 133.413 37.38C133.413 37.38 133.38 37.38 133.38 37.347C133.248 37.0171 132.851 36.8522 132.487 36.9841L129.807 38.0727C129.476 38.2047 129.311 38.6005 129.443 38.9304V38.9634H129.41C129.145 38.6995 128.715 38.6995 128.45 38.9634L126.399 40.9756C126.134 41.2395 126.134 41.6683 126.399 41.8992V41.9322C126.399 41.9322 126.366 41.9652 126.366 41.9322C126.002 41.8002 125.605 41.9652 125.472 42.295L124.347 44.934C124.215 45.2639 124.381 45.6597 124.711 45.7917L124.745 45.8247L124.711 45.8576C124.347 45.8576 124.017 46.1545 124.017 46.5174V49.3543C124.017 49.7171 124.314 50.014 124.711 50.014C124.745 50.014 124.745 50.014 124.745 50.047C124.745 50.047 124.745 50.08 124.711 50.08C124.347 50.2119 124.215 50.6078 124.347 50.9376L125.472 53.5766C125.605 53.9065 126.002 54.0714 126.366 53.9394H126.399V53.9724C126.134 54.2363 126.134 54.6652 126.399 54.8961L128.45 56.9083C128.715 57.1722 129.145 57.1722 129.41 56.9083H129.443C129.443 56.9083 129.476 56.9413 129.443 56.9413C129.311 57.2711 129.476 57.667 129.807 57.7989L132.487 58.8875C132.818 59.0194 133.215 58.8545 133.38 58.5246L133.413 58.4916C133.447 58.4916 133.447 58.5246 133.447 58.5246C133.447 58.8875 133.744 59.1844 134.141 59.1844H137.053C137.417 59.1844 137.748 58.8875 137.748 58.5246C137.748 58.4916 137.748 58.4916 137.781 58.4916C137.781 58.4916 137.814 58.4916 137.814 58.5246C137.946 58.8545 138.344 59.0194 138.707 58.8875L141.388 57.7989C141.718 57.667 141.884 57.2711 141.752 56.9413V56.9083H141.785C142.049 57.1722 142.479 57.1722 142.744 56.9083L144.796 54.8961C145.06 54.6322 145.06 54.2033 144.796 53.9724V53.9394C144.796 53.9394 144.829 53.9065 144.829 53.9394C145.193 54.0714 145.59 53.9065 145.722 53.5766L146.847 50.9376C146.979 50.6078 146.814 50.2119 146.483 50.08L146.45 50.047L146.483 50.014C146.847 50.014 147.178 49.7171 147.178 49.3543V46.5174C147.178 46.1545 146.88 45.8576 146.483 45.8576ZM135.564 54.995C131.594 54.995 128.318 51.8283 128.318 47.9358C128.715 38.5675 142.38 38.5675 142.777 47.9358C142.81 51.8283 139.568 54.995 135.564 54.995Z" fill="#009640"/>
<path d="M13.7691 57.1074C12.2471 56.3157 11.056 55.1942 10.1957 53.7757C9.33541 52.3573 8.90527 50.7409 8.90527 48.9266C8.90527 47.1124 9.33541 45.496 10.1957 44.0776C11.056 42.6591 12.2471 41.5376 13.7691 40.7459C15.2912 39.9542 16.9786 39.5583 18.8977 39.5583C20.5521 39.5583 22.041 39.8552 23.3976 40.449C24.7211 41.0428 25.8461 41.8674 26.7064 42.989L23.4307 45.9248C22.2396 44.5064 20.8168 43.8137 19.1624 43.8137C18.1698 43.8137 17.3095 44.0446 16.5154 44.4734C15.7544 44.9022 15.1588 45.496 14.7287 46.2877C14.2985 47.0794 14.1 47.97 14.1 48.9926C14.1 50.0152 14.2985 50.9059 14.7287 51.6976C15.1588 52.4892 15.7544 53.083 16.5154 53.5118C17.2764 53.9407 18.1698 54.1716 19.1624 54.1716C20.8499 54.1716 22.2726 53.4788 23.4307 52.0604L26.7064 54.9962C25.813 56.0848 24.7211 56.9425 23.3976 57.5362C22.0741 58.13 20.5852 58.4269 18.8977 58.4269C17.0117 58.2949 15.2912 57.8991 13.7691 57.1074Z" fill="#009640"/>
<path d="M60.4884 43.9126H54.9297V39.8552H71.1757V43.9126H65.617V57.9321H60.4884V43.9126Z" fill="#009640"/>
<path d="M76.9003 57.7667C75.5106 57.4039 74.3857 56.9091 73.5254 56.3153L75.2129 52.5548C76.04 53.0826 76.9665 53.5114 78.0253 53.8413C79.0841 54.1711 80.1429 54.3361 81.2017 54.3361C83.187 54.3361 84.1465 53.8413 84.1465 52.8517C84.1465 52.3239 83.8818 51.961 83.3193 51.6971C82.7568 51.4332 81.8635 51.1693 80.6061 50.9054C79.2495 50.6086 78.0915 50.3117 77.1981 49.9488C76.2717 49.6189 75.5106 49.0582 74.8489 48.3324C74.1871 47.6067 73.8563 46.5841 73.8563 45.3306C73.8563 44.2421 74.1541 43.2195 74.7496 42.3618C75.3452 41.4712 76.2717 40.7784 77.4628 40.2506C78.654 39.7228 80.1429 39.4919 81.8965 39.4919C83.0877 39.4919 84.2788 39.6239 85.4369 39.8878C86.595 40.1517 87.6207 40.5475 88.481 41.0753L86.8928 44.8688C85.1722 43.9452 83.4847 43.4834 81.8635 43.4834C80.8377 43.4834 80.1098 43.6483 79.6466 43.9452C79.1834 44.2421 78.9517 44.6379 78.9517 45.1327C78.9517 45.6275 79.2164 45.9904 79.7789 46.2213C80.3414 46.4522 81.2348 46.7161 82.459 46.98C83.8487 47.2769 84.9737 47.5738 85.9001 47.9366C86.7935 48.2665 87.5876 48.7943 88.2494 49.553C88.9111 50.2787 89.242 51.2683 89.242 52.5218C89.242 53.6104 88.9442 54.6 88.3486 55.4576C87.753 56.3483 86.8266 57.041 85.6354 57.5688C84.4112 58.0966 82.9553 58.3605 81.2348 58.3605C79.7128 58.2945 78.29 58.1296 76.9003 57.7667Z" fill="#009640"/>
<path d="M121.833 39.8552L115.944 57.9321H110.451L106.977 46.9144L103.337 57.9321H97.8447L91.9551 39.8552H97.2491L100.889 51.4007L104.727 39.8552H109.458L113.098 51.4996L116.903 39.8552H121.833Z" fill="#009640"/>
<path d="M149.957 39.8552H155.086V53.8747H163.755V57.9321H149.957V39.8552Z" fill="#009640"/>
<path d="M167.56 39.8552H176.129C178.114 39.8552 179.868 40.2181 181.423 40.9768C182.945 41.7025 184.17 42.7581 184.997 44.1435C185.857 45.496 186.254 47.1124 186.254 48.9266C186.254 50.7409 185.824 52.3573 184.997 53.7098C184.136 55.0622 182.945 56.1178 181.423 56.8765C179.901 57.6022 178.114 57.9981 176.129 57.9981H167.56V39.8552ZM175.931 53.8417C177.486 53.8417 178.743 53.4129 179.67 52.5222C180.596 51.6316 181.092 50.444 181.092 48.8937C181.092 47.3433 180.629 46.1227 179.67 45.2651C178.743 44.3744 177.486 43.9456 175.931 43.9456H172.688V53.8417H175.931Z" fill="#009640"/>
<path d="M63.7969 18.3806C65.2196 26.3964 76.1054 29.992 90.1346 31.6084C117.299 34.7092 156.277 30.2559 160.909 35.5998C156.243 29.2663 139.766 27.9798 121.634 27.452H121.568C97.0499 26.7263 69.521 27.2871 63.7969 18.3806Z" fill="#009640"/>
<path d="M10.0957 26.1982C33.7864 32.2019 54.3338 14.092 89.9029 17.0279C98.8365 17.7866 127.292 27.6497 127.292 27.6497C120.31 23.3943 95.7925 15.3125 90.0352 14.6198C84.8736 13.9931 64.8556 10.9912 41.0326 17.9185C38.9811 18.5123 36.8635 19.205 34.779 19.9637C19.4264 25.4395 10.0957 26.1982 10.0957 26.1982Z" fill="#009640"/>
<path d="M7.71387 27.5818C16.9784 38.0057 39.3787 33.8493 58.2716 33.1236C64.1612 32.8927 69.6869 32.9916 74.4184 33.9813C57.3783 26.0974 38.9485 28.5384 25.3826 29.594C17.3754 30.1878 11.0557 30.3197 7.71387 27.5818Z" fill="#009640"/>
<path d="M35.0438 72.6123V73.47H29.9814V66.5427H34.8784V67.4004H30.9741V69.5445H34.4483V70.4022H30.9741V72.6453H35.0438V72.6123Z" fill="#1E1F1D"/>
<path d="M37.1289 66.5427H38.1215V72.6123H41.8935V73.47H37.1289V66.5427Z" fill="#1E1F1D"/>
<path d="M48.5761 72.6123V73.47H43.5137V66.5427H48.4106V67.4004H44.5063V69.5445H47.9805V70.4022H44.5063V72.6453H48.5761V72.6123Z" fill="#1E1F1D"/>
<path d="M51.8854 73.105C51.3229 72.8081 50.8927 72.3793 50.5619 71.8515C50.231 71.3237 50.0986 70.6969 50.0986 70.0372C50.0986 69.3774 50.2641 68.7507 50.5619 68.2229C50.8927 67.6951 51.3229 67.2663 51.8854 66.9694C52.4478 66.6725 53.0765 66.5076 53.7713 66.5076C54.3007 66.5076 54.7971 66.6065 55.2603 66.7715C55.7235 66.9694 56.0875 67.2333 56.4183 67.5632L55.7566 68.1899C55.2272 67.6291 54.5654 67.3652 53.8044 67.3652C53.275 67.3652 52.8118 67.4972 52.4148 67.7281C51.9846 67.959 51.6868 68.2889 51.4221 68.6847C51.1905 69.0806 51.0582 69.5424 51.0582 70.0372C51.0582 70.532 51.1905 70.9938 51.4221 71.3896C51.6537 71.7855 51.9846 72.1154 52.4148 72.3463C52.8449 72.5772 53.3081 72.7091 53.8044 72.7091C54.5654 72.7091 55.2272 72.4452 55.7566 71.8845L56.4183 72.5112C56.0875 72.8741 55.7235 73.138 55.2603 73.3359C54.7971 73.5338 54.3007 73.5998 53.7713 73.5998C53.0765 73.5668 52.4478 73.4018 51.8854 73.105Z" fill="#1E1F1D"/>
<path d="M59.6606 67.4004H57.2783V66.5427H63.0356V67.4004H60.6202V73.47H59.6275V67.4004H59.6606Z" fill="#1E1F1D"/>
<path d="M69.2562 73.47L67.7672 71.3258C67.5687 71.3258 67.4363 71.3588 67.3371 71.3588H65.5834V73.47H64.5908V66.5427H67.304C68.1974 66.5427 68.9253 66.7736 69.4216 67.2025C69.951 67.6313 70.1826 68.2251 70.1826 68.9838C70.1826 69.5115 70.0503 69.9734 69.7856 70.3362C69.5209 70.6991 69.1569 70.996 68.6606 71.1609L70.315 73.503H69.2562V73.47ZM68.7268 70.1383C69.0576 69.8744 69.2231 69.4786 69.2231 68.9838C69.2231 68.489 69.0576 68.0931 68.7268 67.8292C68.3959 67.5653 67.8996 67.4334 67.2709 67.4334H65.5834V70.5671H67.2709C67.8996 70.5342 68.3959 70.4022 68.7268 70.1383Z" fill="#1E1F1D"/>
<path d="M72.334 66.5427H73.3266V73.47H72.334V66.5427Z" fill="#1E1F1D"/>
<path d="M77.1315 73.105C76.569 72.8081 76.1388 72.3793 75.808 71.8515C75.4771 71.3237 75.3447 70.6969 75.3447 70.0372C75.3447 69.3774 75.5102 68.7507 75.808 68.2229C76.1388 67.6951 76.569 67.2663 77.1315 66.9694C77.6939 66.6725 78.3226 66.5076 79.0174 66.5076C79.5468 66.5076 80.0432 66.6065 80.5064 66.7715C80.9696 66.9694 81.3336 67.2333 81.6645 67.5632L81.0027 68.1899C80.4733 67.6291 79.8116 67.3652 79.0505 67.3652C78.5211 67.3652 78.0579 67.4972 77.6609 67.7281C77.2307 67.959 76.9329 68.2889 76.6682 68.6847C76.4366 69.0806 76.3043 69.5424 76.3043 70.0372C76.3043 70.532 76.4366 70.9938 76.6682 71.3896C76.8998 71.7855 77.2307 72.1154 77.6609 72.3463C78.091 72.5772 78.5542 72.7091 79.0505 72.7091C79.8116 72.7091 80.4733 72.4452 81.0027 71.8845L81.6645 72.5112C81.3336 72.8741 80.9696 73.138 80.5064 73.3359C80.0432 73.5338 79.5468 73.5998 79.0174 73.5998C78.3226 73.5668 77.6939 73.4018 77.1315 73.105Z" fill="#1E1F1D"/>
<path d="M92.7818 66.5427L89.7377 73.47H88.7451L85.668 66.5427H86.7268L89.2414 72.2495L91.7561 66.5427H92.7818Z" fill="#1E1F1D"/>
<path d="M99.2343 72.6123V73.47H94.1719V66.5427H99.0688V67.4004H95.1645V69.5445H98.6718V70.4022H95.1976V72.6453H99.2343V72.6123Z" fill="#1E1F1D"/>
<path d="M107.307 66.5427V73.47H106.315V70.3692H102.311V73.47H101.318V66.5427H102.311V69.5116H106.315V66.5427H107.307Z" fill="#1E1F1D"/>
<path d="M109.888 66.5427H110.88V73.47H109.888V66.5427Z" fill="#1E1F1D"/>
<path d="M114.718 73.105C114.156 72.8081 113.726 72.3793 113.395 71.8515C113.064 71.3237 112.932 70.6969 112.932 70.0372C112.932 69.3774 113.097 68.7507 113.395 68.2229C113.726 67.6951 114.156 67.2663 114.718 66.9694C115.281 66.6725 115.91 66.5076 116.604 66.5076C117.134 66.5076 117.63 66.6065 118.093 66.7715C118.557 66.9694 118.92 67.2333 119.251 67.5632L118.59 68.1899C118.06 67.6291 117.398 67.3652 116.637 67.3652C116.108 67.3652 115.645 67.4972 115.248 67.7281C114.818 67.959 114.52 68.2889 114.255 68.6847C114.024 69.0806 113.891 69.5424 113.891 70.0372C113.891 70.532 114.024 70.9938 114.255 71.3896C114.487 71.7855 114.818 72.1154 115.248 72.3463C115.678 72.5772 116.141 72.7091 116.637 72.7091C117.398 72.7091 118.06 72.4452 118.59 71.8845L119.251 72.5112C118.92 72.8741 118.557 73.138 118.093 73.3359C117.63 73.5338 117.134 73.5998 116.604 73.5998C115.91 73.5668 115.281 73.4018 114.718 73.105Z" fill="#1E1F1D"/>
<path d="M121.171 66.5427H122.164V72.6123H125.936V73.47H121.171V66.5427Z" fill="#1E1F1D"/>
<path d="M132.619 72.6123V73.47H127.557V66.5427H132.454V67.4004H128.549V69.5445H132.023V70.4022H128.549V72.6453H132.619V72.6123Z" fill="#1E1F1D"/>
<path d="M135.233 73.3027C134.737 73.1377 134.373 72.9398 134.075 72.6759L134.439 71.9172C134.704 72.1481 135.035 72.3461 135.465 72.511C135.895 72.6759 136.292 72.7419 136.755 72.7419C137.318 72.7419 137.748 72.6429 138.046 72.445C138.343 72.2471 138.476 71.9832 138.476 71.6533C138.476 71.4224 138.41 71.2245 138.244 71.0596C138.079 70.8946 137.88 70.7957 137.682 70.7297C137.45 70.6637 137.119 70.5648 136.722 70.4658C136.193 70.3338 135.763 70.2019 135.465 70.1029C135.134 69.971 134.869 69.7731 134.638 69.5092C134.406 69.2453 134.307 68.8824 134.307 68.4536C134.307 68.0907 134.406 67.7609 134.605 67.464C134.803 67.1671 135.101 66.9362 135.498 66.7383C135.895 66.5733 136.391 66.4744 136.987 66.4744C137.384 66.4744 137.814 66.5403 138.211 66.6393C138.608 66.7383 138.939 66.9032 139.237 67.1011L138.906 67.8928C138.608 67.6949 138.31 67.5629 137.98 67.464C137.649 67.365 137.318 67.332 137.02 67.332C136.458 67.332 136.027 67.431 135.763 67.6289C135.465 67.8268 135.333 68.0907 135.333 68.4206C135.333 68.6515 135.399 68.8494 135.564 69.0144C135.73 69.1793 135.928 69.2783 136.16 69.3772C136.391 69.4762 136.722 69.5422 137.119 69.6411C137.649 69.7731 138.079 69.905 138.377 70.004C138.707 70.1359 138.972 70.3338 139.204 70.5648C139.435 70.8287 139.535 71.1585 139.535 71.6203C139.535 71.9832 139.435 72.3131 139.237 72.6099C139.038 72.9068 138.741 73.1377 138.343 73.3357C137.946 73.5006 137.45 73.5996 136.855 73.5996C136.226 73.5666 135.73 73.4676 135.233 73.3027Z" fill="#1E1F1D"/>
<path d="M144.563 66.5427H145.556V72.6123H149.328V73.47H144.563V66.5427Z" fill="#1E1F1D"/>
<path d="M151.71 67.4004H149.295V66.5427H155.052V67.4004H152.67V73.47H151.677V67.4004H151.71Z" fill="#1E1F1D"/>
<path d="M156.641 66.5427H159.585C160.313 66.5427 160.975 66.6747 161.538 66.9716C162.1 67.2684 162.563 67.6643 162.861 68.1921C163.192 68.7199 163.324 69.3136 163.324 70.0064C163.324 70.6991 163.159 71.2928 162.861 71.8206C162.53 72.3484 162.1 72.7443 161.538 73.0412C160.975 73.338 160.313 73.47 159.585 73.47H156.641V66.5427ZM159.519 72.6123C160.082 72.6123 160.578 72.5134 161.008 72.2825C161.438 72.0515 161.769 71.7547 162.001 71.3588C162.232 70.963 162.365 70.5012 162.365 70.0064C162.365 69.4786 162.232 69.0497 162.001 68.6539C161.769 68.258 161.438 67.9612 161.008 67.7303C160.578 67.4993 160.082 67.4004 159.519 67.4004H157.633V72.6123H159.519Z" fill="#1E1F1D"/>
<path d="M133.645 52.7537L138.542 48.2015L135.663 46.2223L137.516 42.6267L132.619 47.1789L135.498 49.1581L133.645 52.7537Z" fill="#009640"/>
<path d="M38.6175 52.7537L43.5145 48.2015L40.6359 46.2223L42.4888 42.6267L37.5918 47.1789L40.4704 49.1581L38.6175 52.7537Z" fill="#009640"/>
</svg>
