<svg width="24" height="24" viewBox="0 0 24 24" fill="none" xmlns="http://www.w3.org/2000/svg">
<g clip-path="url(#clip0_215_732)">
<path d="M10 16.9999H7.329C6.93472 17.0012 6.54411 16.9241 6.17985 16.7733C5.81558 16.6224 5.4849 16.4006 5.207 16.1209L0.052 10.9659C0.023 11.3079 0 11.6509 0 11.9999C0.0043918 15.0072 1.13694 17.9034 3.17374 20.1159C5.21054 22.3285 8.00334 23.6963 11 23.9489V17.9999C11 17.7347 10.8946 17.4804 10.7071 17.2928C10.5196 17.1053 10.2652 16.9999 10 16.9999Z" fill="#009640"/>
<path d="M20.436 3.47803L18.646 5.26803C18.1763 5.73512 17.5414 5.99814 16.879 6.00003H15.5C15.3674 6.00003 15.2402 6.05271 15.1464 6.14647C15.0527 6.24024 15 6.36742 15 6.50003V7.50003C15 8.16307 14.7366 8.79895 14.2678 9.2678C13.7989 9.73664 13.163 10 12.5 10C12.3674 10 12.2402 10.0527 12.1464 10.1465C12.0527 10.2402 12 10.3674 12 10.5V11C12 11.2652 12.1054 11.5196 12.2929 11.7071C12.4804 11.8947 12.7348 12 13 12H16C16.7956 12 17.5587 12.3161 18.1213 12.8787C18.6839 13.4413 19 14.2044 19 15V15.962C19 16.0944 19.0525 16.2213 19.146 16.315L21.771 18.941C23.4258 16.6267 24.2005 13.7978 23.9558 10.9633C23.7111 8.12872 22.463 5.4745 20.436 3.47803Z" fill="#009640"/>
<path d="M17 15.9629V15.0009C17 14.7357 16.8946 14.4813 16.7071 14.2938C16.5196 14.1062 16.2652 14.0009 16 14.0009H13C12.2044 14.0009 11.4413 13.6848 10.8787 13.1222C10.3161 12.5596 10 11.7965 10 11.0009V10.5009C10 9.83783 10.2634 9.20195 10.7322 8.73311C11.2011 8.26427 11.837 8.00087 12.5 8.00087C12.6326 8.00087 12.7598 7.94819 12.8536 7.85443C12.9473 7.76066 13 7.63348 13 7.50087V6.50087C13 5.83783 13.2634 5.20195 13.7322 4.73311C14.2011 4.26427 14.837 4.00087 15.5 4.00087H16.879C17.0112 4.00009 17.1379 3.9477 17.232 3.85487L18.893 2.19387C17.3379 1.09554 15.5434 0.383848 13.6582 0.117832C11.7731 -0.148184 9.85166 0.0391466 8.05339 0.664283C6.25512 1.28942 4.63183 2.33434 3.31819 3.71236C2.00456 5.09038 1.03844 6.76177 0.5 8.58787L6.62 14.7079C6.71308 14.801 6.82362 14.8748 6.94529 14.9251C7.06695 14.9753 7.19735 15.0011 7.329 15.0009H10C10.7957 15.0009 11.5587 15.3169 12.1213 15.8796C12.6839 16.4422 13 17.2052 13 18.0009V23.9499C15.8267 23.7172 18.4788 22.4878 20.483 20.4809L17.732 17.7299C17.2649 17.2602 17.0019 16.6253 17 15.9629Z" fill="#333333"/>
</g>
<defs>
<clipPath id="clip0_215_732">
<rect width="24" height="24" fill="white"/>
</clipPath>
</defs>
</svg>
