<svg width="16" height="16" viewBox="0 0 16 16" fill="none" xmlns="http://www.w3.org/2000/svg">
<g clip-path="url(#clip0_215_719)">
<path d="M15.95 6.1176C15.83 5.74814 15.5106 5.47886 15.1262 5.42302L10.8345 4.79933L8.91517 0.910442C8.74323 0.562076 8.38845 0.341553 7.99996 0.341553C7.61146 0.341553 7.25669 0.562076 7.08479 0.910442L5.16547 4.79933L0.873813 5.42304C0.489369 5.47889 0.169996 5.74817 0.0499701 6.11763C-0.0700561 6.48709 0.0300485 6.89266 0.308245 7.16377L3.41373 10.1909L2.68058 14.4653C2.61488 14.8482 2.77227 15.2351 3.08657 15.4634C3.40087 15.6918 3.8175 15.7219 4.16139 15.5411L7.99996 13.523L11.8385 15.5411C11.9879 15.6197 12.1509 15.6584 12.3133 15.6584C12.525 15.6584 12.7355 15.5926 12.9133 15.4635C13.2276 15.2351 13.385 14.8482 13.3193 14.4653L12.5862 10.1909L15.6917 7.16377C15.9699 6.89258 16.07 6.48702 15.95 6.1176Z" fill="#009640"/>
</g>
<defs>
<clipPath id="clip0_215_719">
<rect width="16" height="16" fill="white"/>
</clipPath>
</defs>
</svg>
