<svg width="29" height="35" viewBox="0 0 29 35" fill="none" xmlns="http://www.w3.org/2000/svg">
<path d="M9.51833 34.8178C9.75251 34.9406 10.0058 35 10.2566 35C10.714 35 11.1636 34.8027 11.4742 34.4337L28.4438 14.2823C28.8424 13.8089 28.9304 13.1476 28.6694 12.5865C28.4084 12.0254 27.8458 11.6666 27.227 11.6666H18.4585L24.3268 2.44501C24.6385 1.95512 24.6585 1.33434 24.3792 0.825361C24.0998 0.316272 23.5653 0 22.9846 0H13.4392C12.8714 0 12.3467 0.302484 12.0624 0.793755L0.395764 20.9452C0.11078 21.4374 0.110249 22.0442 0.394279 22.537C0.678414 23.0297 1.20384 23.3333 1.77253 23.3333H11.3562L8.72245 32.9904C8.52603 33.7108 8.85704 34.4711 9.51833 34.8178Z" fill="white"/>
</svg>
