<svg width="30" height="30" viewBox="0 0 30 30" fill="none" xmlns="http://www.w3.org/2000/svg">
<g clip-path="url(#clip0_215_656)">
<path d="M15 18.7394C12.9289 18.7394 11.25 20.4183 11.25 22.4894V29.9894H18.75V22.4894C18.75 20.4183 17.0711 18.7394 15 18.7394Z" fill="#009640"/>
<path d="M21.25 22.4902V29.9902H26.25C28.3211 29.9902 30 28.3113 30 26.2402V14.839C30.0003 14.1896 29.7479 13.5656 29.2962 13.099L18.6738 1.61521C16.7995 -0.412718 13.6361 -0.53723 11.6082 1.33707C11.5119 1.42613 11.419 1.51888 11.33 1.61521L0.72627 13.0953C0.260918 13.5638 -0.000175693 14.1974 8.87009e-08 14.8578V26.2402C8.87009e-08 28.3113 1.67895 29.9902 3.75 29.9902H8.74998V22.4902C8.77336 19.0817 11.5253 16.2983 14.848 16.2181C18.2818 16.1353 21.2238 18.9661 21.25 22.4902Z" fill="#21242C"/>
<path d="M15 18.7394C12.9289 18.7394 11.25 20.4183 11.25 22.4894V29.9894H18.75V22.4894C18.75 20.4183 17.0711 18.7394 15 18.7394Z" fill="#009640"/>
</g>
<defs>
<clipPath id="clip0_215_656">
<rect width="30" height="30" fill="white"/>
</clipPath>
</defs>
</svg>
