<svg width="57" height="57" viewBox="0 0 57 57" fill="none" xmlns="http://www.w3.org/2000/svg">
<g clip-path="url(#clip0_215_674)">
<path d="M46.8607 7.65747H1.74074C0.781065 7.65747 0 8.43872 0 9.39877V30.1788C0 31.1389 0.781065 31.9199 1.74074 31.9199H46.8607C47.8206 31.9199 48.6015 31.1389 48.6015 30.1788V9.39877C48.6015 8.43872 47.8206 7.65747 46.8607 7.65747ZM13.6377 27.1512C12.515 27.1512 11.4689 26.8739 10.5704 26.367C10.3427 26.8314 9.86531 27.1512 9.31306 27.1512C8.53983 27.1512 7.9133 26.5245 7.9133 25.7515V22.9598C7.9118 22.9229 7.9118 22.8859 7.9133 22.8493V18.9703C7.9118 18.9335 7.9118 18.8966 7.9133 18.8598V11.8551C7.9133 11.082 8.53983 10.4553 9.31306 10.4553C10.0863 10.4553 10.7128 11.082 10.7128 11.8551V15.3754C11.5786 14.9177 12.5741 14.6686 13.6377 14.6686C17.1161 14.6686 19.7388 17.3556 19.7388 20.9186C19.739 24.4717 17.1161 27.1512 13.6377 27.1512ZM30.5045 25.5824C30.5045 26.3554 29.8779 26.9822 29.1047 26.9822C28.4972 26.9822 27.9802 26.5951 27.7865 26.0542C27.1098 26.3982 26.3184 26.588 25.4261 26.6074C25.4159 26.6076 25.4058 26.6078 25.3955 26.6078C22.4006 26.6078 20.3094 24.6154 20.3094 21.7626V15.8998C20.3094 15.1268 20.9359 14.5 21.7091 14.5C22.4823 14.5 23.1089 15.1268 23.1089 15.8998V21.7626C23.1089 23.5964 24.6863 23.8054 25.3815 23.8082C26.1473 23.7913 27.7051 23.7347 27.7051 20.6379V15.8998C27.7051 15.1268 28.3317 14.5 29.1049 14.5C29.8781 14.5 30.5046 15.1268 30.5046 15.8998V25.5824H30.5045ZM41.7979 16.4295L37.884 26.0036C37.8681 26.049 37.8498 26.0936 37.8295 26.1373L37.2657 27.5167C36.4458 29.4887 35.0537 30.6154 33.443 30.6154C32.6698 30.6154 32.0433 29.9886 32.0433 29.2156C32.0433 28.4426 32.6698 27.8158 33.443 27.8158C33.8603 27.8158 34.3219 27.3052 34.6772 26.4499L35.0484 25.5421L31.2864 16.4343C30.9912 15.7199 31.3312 14.9013 32.0457 14.6062C32.7603 14.311 33.5787 14.651 33.8738 15.3655L36.555 21.8564L39.2065 15.3701C39.4987 14.6546 40.3166 14.3115 41.0317 14.6042C41.7475 14.8966 42.0903 15.7139 41.7979 16.4295Z" fill="#21242C"/>
<path d="M13.6378 17.4681C12.3267 17.4681 11.251 18.1141 10.7129 19.2093V22.6107C11.2506 23.7058 12.3263 24.3516 13.6378 24.3516C15.5818 24.3516 16.9394 22.9399 16.9394 20.9184C16.9396 18.8869 15.5818 17.4681 13.6378 17.4681Z" fill="#21242C"/>
<path d="M56.4536 46.1565L52.6729 42.3759C53.3666 42.3042 53.9917 41.8471 54.241 41.1463C54.5865 40.1751 54.0792 39.1079 53.1081 38.7625L46.4276 36.3862C45.749 36.1449 44.992 36.3157 44.4821 36.8252C43.9728 37.3345 43.8022 38.0915 44.0435 38.7703L46.3279 45.1918C46.5998 45.9563 47.3191 46.4331 48.0864 46.4331C48.2939 46.4331 48.5052 46.398 48.712 46.3245C49.363 46.0929 49.8038 45.5365 49.9206 44.9027L53.8136 48.7959C54.1783 49.1604 54.6559 49.3426 55.1335 49.3426C55.6113 49.3426 56.0887 49.1604 56.4532 48.7959C57.1824 48.0671 57.1824 46.8853 56.4536 46.1565Z" fill="#009640"/>
</g>
<defs>
<clipPath id="clip0_215_674">
<rect width="57" height="57" fill="white"/>
</clipPath>
</defs>
</svg>
